<svg width="70" height="70" viewBox="0 0 70 70" fill="none" xmlns="http://www.w3.org/2000/svg">
<rect width="70" height="70" rx="10" fill="#FCF7EF"/>
<path d="M20.408 36.672L16.376 41.712V52.08H11V18.576H16.376V34.608H16.616L20.696 29.04L28.904 18.576H35.096L24.056 32.688L35.528 52.08H29.384L20.408 36.672ZM48.9972 52.656C44.7412 52.656 41.5732 51.152 39.4932 48.144C37.4452 45.136 36.4212 40.864 36.4212 35.328C36.4212 29.792 37.4452 25.52 39.4932 22.512C41.5732 19.504 44.7412 18 48.9972 18C50.6292 18 52.0372 18.224 53.2212 18.672C54.4372 19.088 55.4772 19.68 56.3412 20.448C57.2052 21.184 57.9252 22.064 58.5012 23.088C59.1092 24.08 59.6052 25.152 59.9892 26.304L55.1412 27.936C54.8852 27.168 54.5972 26.448 54.2772 25.776C53.9572 25.104 53.5572 24.528 53.0772 24.048C52.5972 23.568 52.0212 23.184 51.3492 22.896C50.7092 22.608 49.9092 22.464 48.9492 22.464C46.5812 22.464 44.8532 23.376 43.7652 25.2C42.6772 26.992 42.1332 29.424 42.1332 32.496V38.16C42.1332 41.232 42.6772 43.68 43.7652 45.504C44.8532 47.296 46.5812 48.192 48.9492 48.192C49.9092 48.192 50.7092 48.048 51.3492 47.76C52.0212 47.472 52.5972 47.088 53.0772 46.608C53.5572 46.128 53.9572 45.552 54.2772 44.88C54.5972 44.208 54.8852 43.488 55.1412 42.72L59.9892 44.352C59.6052 45.504 59.1092 46.592 58.5012 47.616C57.9252 48.608 57.2052 49.488 56.3412 50.256C55.4772 50.992 54.4372 51.584 53.2212 52.032C52.0372 52.448 50.6292 52.656 48.9972 52.656Z" fill="#1B1712"/>
</svg>
