<svg width="62" height="61" viewBox="0 0 62 61" fill="none" xmlns="http://www.w3.org/2000/svg">
<rect y="1" width="60" height="60" rx="10" fill="#221B16"/>
<path d="M15.152 33.592L11.12 38.632V49H5.744V15.496H11.12V31.528H11.36L15.44 25.96L23.648 15.496H29.84L18.8 29.608L30.272 49H24.128L15.152 33.592ZM43.7413 49.576C39.4853 49.576 36.3173 48.072 34.2373 45.064C32.1893 42.056 31.1653 37.784 31.1653 32.248C31.1653 26.712 32.1893 22.44 34.2373 19.432C36.3173 16.424 39.4853 14.92 43.7413 14.92C45.3733 14.92 46.7813 15.144 47.9653 15.592C49.1813 16.008 50.2213 16.6 51.0853 17.368C51.9493 18.104 52.6693 18.984 53.2453 20.008C53.8533 21 54.3493 22.072 54.7333 23.224L49.8853 24.856C49.6293 24.088 49.3413 23.368 49.0213 22.696C48.7013 22.024 48.3013 21.448 47.8213 20.968C47.3413 20.488 46.7653 20.104 46.0933 19.816C45.4533 19.528 44.6533 19.384 43.6933 19.384C41.3253 19.384 39.5973 20.296 38.5093 22.12C37.4213 23.912 36.8773 26.344 36.8773 29.416V35.08C36.8773 38.152 37.4213 40.6 38.5093 42.424C39.5973 44.216 41.3253 45.112 43.6933 45.112C44.6533 45.112 45.4533 44.968 46.0933 44.68C46.7653 44.392 47.3413 44.008 47.8213 43.528C48.3013 43.048 48.7013 42.472 49.0213 41.8C49.3413 41.128 49.6293 40.408 49.8853 39.64L54.7333 41.272C54.3493 42.424 53.8533 43.512 53.2453 44.536C52.6693 45.528 51.9493 46.408 51.0853 47.176C50.2213 47.912 49.1813 48.504 47.9653 48.952C46.7813 49.368 45.3733 49.576 43.7413 49.576Z" fill="#F2EBDF"/>
</svg>
