<svg width="718" height="507" viewBox="0 0 718 507" fill="none" xmlns="http://www.w3.org/2000/svg">
<path d="M111.276 366.73L106.32 266.682L241.924 121.117H340.135L204.982 267.583L155.426 319.41L111.276 366.73ZM31.5356 436.583V121.117H119.836V436.583H31.5356ZM243.275 436.583L140.559 306.341L198.675 244.149L346.893 436.583H243.275ZM516.087 442.893C491.158 442.893 468.034 438.988 446.709 431.175C425.686 423.063 407.363 411.645 391.746 396.925C376.429 382.204 364.417 364.927 355.706 345.098C346.996 324.968 342.641 302.886 342.641 278.85C342.641 254.814 346.996 232.882 355.706 213.053C364.417 192.923 376.429 175.497 391.746 160.775C407.363 146.054 425.686 134.787 446.709 126.975C468.034 118.863 491.158 114.807 516.087 114.807C545.219 114.807 571.201 119.915 594.025 130.13C617.153 140.345 636.373 155.067 651.691 174.295L594.926 225.671C584.716 213.654 573.453 204.49 561.138 198.181C549.126 191.871 535.61 188.717 520.592 188.717C507.679 188.717 495.814 190.82 485.002 195.026C474.19 199.232 464.88 205.391 457.07 213.503C449.563 221.315 443.555 230.779 439.05 241.895C434.844 253.012 432.743 265.33 432.743 278.85C432.743 292.37 434.844 304.688 439.05 315.805C443.555 326.921 449.563 336.535 457.07 344.647C464.88 352.46 474.19 358.467 485.002 362.674C495.814 366.881 507.679 368.983 520.592 368.983C535.61 368.983 549.126 365.829 561.138 359.519C573.453 353.21 584.716 344.046 594.926 332.029L651.691 383.405C636.373 402.333 617.153 417.053 594.025 427.57C571.201 437.784 545.219 442.893 516.087 442.893Z" fill="#F5F5F5"/>
<mask id="mask0_12_2" style="mask-type:luminance" maskUnits="userSpaceOnUse" x="449" y="209" width="141" height="141">
<path d="M589.892 209H449V349.941H589.892V209Z" fill="white"/>
</mask>
<g mask="url(#mask0_12_2)">
<path d="M582.171 265.541H574.704C573.314 260.127 571.149 255.057 568.321 250.418L573.694 245.035C575.141 243.585 575.939 241.65 575.939 239.596C575.939 237.545 575.136 235.607 573.694 234.16L564.743 225.218C561.84 222.311 556.768 222.315 553.88 225.215L548.282 230.779C543.698 228.106 538.781 226.045 533.366 224.721V216.725C533.366 212.486 529.98 209 525.744 209H513.092C508.851 209 505.516 212.486 505.516 216.725V224.718C500.106 226.039 495.161 228.103 490.568 230.779L484.974 225.215C482.077 222.308 477 222.311 474.093 225.212L465.151 234.154C463.719 235.586 462.897 237.566 462.897 239.59C462.897 241.641 463.69 243.572 465.146 245.022L470.514 250.418C467.692 255.057 465.522 260.127 464.137 265.541H456.665C452.424 265.541 449 268.951 449 273.181V285.828C449 290.07 452.424 293.403 456.665 293.403H464.137C465.522 298.817 467.687 303.918 470.51 308.557L465.137 313.962C463.686 315.412 462.887 317.352 462.887 319.406C462.887 321.46 463.69 323.401 465.137 324.851L474.088 333.8C475.539 335.25 477.47 336.047 479.517 336.047C481.57 336.047 483.5 335.247 484.951 333.8L490.568 328.232C495.161 330.909 500.106 332.969 505.516 334.297V342.28C505.516 346.52 508.851 349.938 513.092 349.938H525.744C529.98 349.938 533.366 346.52 533.366 342.28V334.293C538.781 332.969 543.698 330.909 548.291 328.232L553.857 333.788C555.312 335.244 557.243 336.041 559.3 336.041C561.352 336.041 563.287 335.241 564.733 333.794L573.685 324.851C575.131 323.404 575.925 321.47 575.934 319.418C575.934 317.364 575.131 315.436 573.685 313.983L568.321 308.557C571.139 303.915 573.304 298.811 574.695 293.403H582.166C586.403 293.403 589.887 290.07 589.887 285.828V273.181C589.892 268.951 586.412 265.541 582.171 265.541ZM519.413 303.578C505.996 303.578 495.119 292.796 495.119 279.506C495.119 266.207 505.996 255.44 519.413 255.44C532.835 255.44 543.722 266.207 543.722 279.506C543.717 292.799 532.835 303.578 519.413 303.578Z" fill="#339CFF"/>
</g>
</svg>
