<svg width="63" height="61" viewBox="0 0 63 61" fill="none" xmlns="http://www.w3.org/2000/svg">
<rect y="1" width="60" height="60" rx="10" fill="#FCF7EF"/>
<path d="M16.152 33.592L12.12 38.632V49H6.744V15.496H12.12V31.528H12.36L16.44 25.96L24.648 15.496H30.84L19.8 29.608L31.272 49H25.128L16.152 33.592ZM44.7413 49.576C40.4853 49.576 37.3173 48.072 35.2373 45.064C33.1893 42.056 32.1653 37.784 32.1653 32.248C32.1653 26.712 33.1893 22.44 35.2373 19.432C37.3173 16.424 40.4853 14.92 44.7413 14.92C46.3733 14.92 47.7813 15.144 48.9653 15.592C50.1813 16.008 51.2213 16.6 52.0853 17.368C52.9493 18.104 53.6693 18.984 54.2453 20.008C54.8533 21 55.3493 22.072 55.7333 23.224L50.8853 24.856C50.6293 24.088 50.3413 23.368 50.0213 22.696C49.7013 22.024 49.3013 21.448 48.8213 20.968C48.3413 20.488 47.7653 20.104 47.0933 19.816C46.4533 19.528 45.6533 19.384 44.6933 19.384C42.3253 19.384 40.5973 20.296 39.5093 22.12C38.4213 23.912 37.8773 26.344 37.8773 29.416V35.08C37.8773 38.152 38.4213 40.6 39.5093 42.424C40.5973 44.216 42.3253 45.112 44.6933 45.112C45.6533 45.112 46.4533 44.968 47.0933 44.68C47.7653 44.392 48.3413 44.008 48.8213 43.528C49.3013 43.048 49.7013 42.472 50.0213 41.8C50.3413 41.128 50.6293 40.408 50.8853 39.64L55.7333 41.272C55.3493 42.424 54.8533 43.512 54.2453 44.536C53.6693 45.528 52.9493 46.408 52.0853 47.176C51.2213 47.912 50.1813 48.504 48.9653 48.952C47.7813 49.368 46.3733 49.576 44.7413 49.576Z" fill="#1B1712"/>
</svg>
