<svg width="204" height="144" viewBox="0 0 204 144" fill="none" xmlns="http://www.w3.org/2000/svg">
<path d="M31.616 104.16L30.208 75.744L68.736 34.4H96.64L58.24 76L44.16 90.72L31.616 104.16ZM8.96 124V34.4H34.048V124H8.96ZM69.12 124L39.936 87.008L56.448 69.344L98.56 124H69.12ZM146.632 125.792C139.549 125.792 132.979 124.683 126.92 122.464C120.947 120.16 115.741 116.917 111.304 112.736C106.952 108.555 103.539 103.648 101.064 98.016C98.5893 92.2987 97.352 86.0267 97.352 79.2C97.352 72.3733 98.5893 66.144 101.064 60.512C103.539 54.7947 106.952 49.8453 111.304 45.664C115.741 41.4827 120.947 38.2827 126.92 36.064C132.979 33.76 139.549 32.608 146.632 32.608C154.909 32.608 162.291 34.0587 168.776 36.96C175.347 39.8613 180.808 44.0427 185.16 49.504L169.032 64.096C166.131 60.6827 162.931 58.08 159.432 56.288C156.019 54.496 152.179 53.6 147.912 53.6C144.243 53.6 140.872 54.1973 137.8 55.392C134.728 56.5867 132.083 58.336 129.864 60.64C127.731 62.8587 126.024 65.5467 124.744 68.704C123.549 71.8613 122.952 75.36 122.952 79.2C122.952 83.04 123.549 86.5387 124.744 89.696C126.024 92.8533 127.731 95.584 129.864 97.888C132.083 100.107 134.728 101.813 137.8 103.008C140.872 104.203 144.243 104.8 147.912 104.8C152.179 104.8 156.019 103.904 159.432 102.112C162.931 100.32 166.131 97.7173 169.032 94.304L185.16 108.896C180.808 114.272 175.347 118.453 168.776 121.44C162.291 124.341 154.909 125.792 146.632 125.792Z" fill="black"/>
<g clip-path="url(#clip0_4_19)">
<path d="M161.356 76.0351H159.766C159.47 74.8827 159.009 73.8034 158.407 72.816L159.551 71.6702C159.859 71.3615 160.029 70.9497 160.029 70.5125C160.029 70.076 159.858 69.6635 159.551 69.3555L157.645 67.452C157.027 66.8334 155.947 66.8341 155.332 67.4514L154.14 68.6358C153.164 68.0667 152.117 67.6282 150.964 67.3463V65.6444C150.964 64.742 150.243 64 149.341 64H146.647C145.744 64 145.034 64.742 145.034 65.6444V67.3457C143.882 67.6269 142.829 68.0661 141.851 68.6358L140.66 67.4514C140.043 66.8327 138.962 66.8334 138.343 67.4507L136.439 69.3542C136.134 69.659 135.959 70.0805 135.959 70.5112C135.959 70.9478 136.128 71.3589 136.438 71.6675L137.581 72.816C136.98 73.8034 136.518 74.8827 136.223 76.0351H134.632C133.729 76.0351 133 76.7608 133 77.6613V80.3531C133 81.2562 133.729 81.9655 134.632 81.9655H136.223C136.518 83.118 136.979 84.2038 137.58 85.1911L136.436 86.3416C136.127 86.6503 135.957 87.0633 135.957 87.5005C135.957 87.9377 136.128 88.3508 136.436 88.6595L138.342 90.5643C138.651 90.8729 139.062 91.0426 139.498 91.0426C139.935 91.0426 140.346 90.8723 140.655 90.5643L141.851 89.3792C142.829 89.9489 143.882 90.3874 145.034 90.67V92.3693C145.034 93.2717 145.744 93.9993 146.647 93.9993H149.341C150.243 93.9993 150.964 93.2717 150.964 92.3693V90.6693C152.117 90.3874 153.164 89.9489 154.142 89.3792L155.327 90.5617C155.637 90.8716 156.048 91.0413 156.486 91.0413C156.923 91.0413 157.335 90.871 157.643 90.563L159.549 88.6595C159.857 88.3515 160.026 87.9397 160.028 87.5031C160.028 87.0659 159.857 86.6555 159.549 86.3462L158.407 85.1911C159.007 84.2032 159.468 83.1167 159.764 81.9655H161.355C162.257 81.9655 162.999 81.2562 162.999 80.3531V77.6613C163 76.7608 162.259 76.0351 161.356 76.0351ZM147.993 84.1314C145.136 84.1314 142.82 81.8363 142.82 79.0075C142.82 76.1767 145.136 73.8849 147.993 73.8849C150.851 73.8849 153.169 76.1767 153.169 79.0075C153.168 81.837 150.851 84.1314 147.993 84.1314Z" fill="#008080"/>
</g>
<defs>
<clipPath id="clip0_4_19">
<rect width="30" height="30" fill="white" transform="translate(133 64)"/>
</clipPath>
</defs>
</svg>
